<svg width="1019" height="218" viewBox="0 0 1019 218" fill="none" xmlns="http://www.w3.org/2000/svg">
<g clip-path="url(#clip0_707_18)">
<rect width="1019" height="218" fill="white"/>
<path d="M36.642 182H35.642V183H36.642V182ZM36.642 36.5455V35.5455H35.642V36.5455H36.642ZM67.3949 36.5455H68.3949V35.5455H67.3949V36.5455ZM67.3949 96.5597H66.3949V97.5597H67.3949V96.5597ZM129.824 96.5597V97.5597H130.824V96.5597H129.824ZM129.824 36.5455V35.5455H128.824V36.5455H129.824ZM160.506 36.5455H161.506V35.5455H160.506V36.5455ZM160.506 182V183H161.506V182H160.506ZM129.824 182H128.824V183H129.824V182ZM129.824 121.915H130.824V120.915H129.824V121.915ZM67.3949 121.915V120.915H66.3949V121.915H67.3949ZM67.3949 182V183H68.3949V182H67.3949ZM37.642 182V36.5455H35.642V182H37.642ZM36.642 37.5455H67.3949V35.5455H36.642V37.5455ZM66.3949 36.5455V96.5597H68.3949V36.5455H66.3949ZM67.3949 97.5597H129.824V95.5597H67.3949V97.5597ZM130.824 96.5597V36.5455H128.824V96.5597H130.824ZM129.824 37.5455H160.506V35.5455H129.824V37.5455ZM159.506 36.5455V182H161.506V36.5455H159.506ZM160.506 181H129.824V183H160.506V181ZM130.824 182V121.915H128.824V182H130.824ZM129.824 120.915H67.3949V122.915H129.824V120.915ZM66.3949 121.915V182H68.3949V121.915H66.3949ZM67.3949 181H36.642V183H67.3949V181ZM216.614 36.5455H217.614V35.5455H216.614V36.5455ZM216.614 182V183H217.614V182H216.614ZM185.861 182H184.861V183H185.861V182ZM185.861 36.5455V35.5455H184.861V36.5455H185.861ZM215.614 36.5455V182H217.614V36.5455H215.614ZM216.614 181H185.861V183H216.614V181ZM186.861 182V36.5455H184.861V182H186.861ZM185.861 37.5455H216.614V35.5455H185.861V37.5455ZM274.231 162.114L275.226 162.213L275.336 161.114H274.231V162.114ZM273.45 169.926L272.455 169.827L272.454 169.828L273.45 169.926ZM269.898 188.605L268.936 188.333L268.934 188.342L269.898 188.605ZM264.501 205.58L263.564 205.229L263.561 205.237L264.501 205.58ZM260.026 217.511V218.511H260.707L260.957 217.877L260.026 217.511ZM240.424 217.511L239.455 217.265L239.138 218.511H240.424V217.511ZM243.336 205.793L242.365 205.552L242.365 205.554L243.336 205.793ZM246.816 189.031L245.831 188.858L245.831 188.858L246.816 189.031ZM248.876 170.068L247.877 170.024L247.877 170.024L248.876 170.068ZM249.231 162.114V161.114H248.274L248.232 162.069L249.231 162.114ZM273.236 162.014L272.455 169.827L274.445 170.026L275.226 162.213L273.236 162.014ZM272.454 169.828C271.845 176.018 270.672 182.186 268.936 188.333L270.861 188.877C272.628 182.619 273.823 176.334 274.445 170.024L272.454 169.828ZM268.934 188.342C267.236 194.568 265.445 200.197 263.564 205.229L265.437 205.93C267.344 200.83 269.152 195.142 270.863 188.868L268.934 188.342ZM263.561 205.237C261.716 210.3 260.228 214.268 259.096 217.145L260.957 217.877C262.098 214.978 263.593 210.991 265.44 205.922L263.561 205.237ZM260.026 216.511H240.424V218.511H260.026V216.511ZM241.393 217.758C242.104 214.96 243.076 211.051 244.307 206.031L242.365 205.554C241.134 210.572 240.164 214.475 239.455 217.265L241.393 217.758ZM244.307 206.033C245.544 201.035 246.709 195.425 247.801 189.204L245.831 188.858C244.745 195.043 243.59 200.607 242.365 205.552L244.307 206.033ZM247.801 189.204C248.898 182.958 249.589 176.594 249.875 170.112L247.877 170.024C247.594 176.421 246.912 182.699 245.831 188.858L247.801 189.204ZM249.875 170.113L250.23 162.158L248.232 162.069L247.877 170.024L249.875 170.113ZM249.231 163.114H274.231V161.114H249.231V163.114ZM336.376 61.9006H335.376V62.9006H336.376V61.9006ZM336.376 36.5455V35.5455H335.376V36.5455H336.376ZM455.836 36.5455H456.836V35.5455H455.836V36.5455ZM455.836 61.9006V62.9006H456.836V61.9006H455.836ZM411.305 61.9006V60.9006H410.305V61.9006H411.305ZM411.305 182V183H412.305V182H411.305ZM380.907 182H379.907V183H380.907V182ZM380.907 61.9006H381.907V60.9006H380.907V61.9006ZM337.376 61.9006V36.5455H335.376V61.9006H337.376ZM336.376 37.5455H455.836V35.5455H336.376V37.5455ZM454.836 36.5455V61.9006H456.836V36.5455H454.836ZM455.836 60.9006H411.305V62.9006H455.836V60.9006ZM410.305 61.9006V182H412.305V61.9006H410.305ZM411.305 181H380.907V183H411.305V181ZM381.907 182V61.9006H379.907V182H381.907ZM380.907 60.9006H336.376V62.9006H380.907V60.9006ZM475.509 182H474.509V183H475.509V182ZM475.509 36.5455V35.5455H474.509V36.5455H475.509ZM506.262 36.5455H507.262V35.5455H506.262V36.5455ZM506.262 96.5597H505.262V97.5597H506.262V96.5597ZM568.691 96.5597V97.5597H569.691V96.5597H568.691ZM568.691 36.5455V35.5455H567.691V36.5455H568.691ZM599.373 36.5455H600.373V35.5455H599.373V36.5455ZM599.373 182V183H600.373V182H599.373ZM568.691 182H567.691V183H568.691V182ZM568.691 121.915H569.691V120.915H568.691V121.915ZM506.262 121.915V120.915H505.262V121.915H506.262ZM506.262 182V183H507.262V182H506.262ZM476.509 182V36.5455H474.509V182H476.509ZM475.509 37.5455H506.262V35.5455H475.509V37.5455ZM505.262 36.5455V96.5597H507.262V36.5455H505.262ZM506.262 97.5597H568.691V95.5597H506.262V97.5597ZM569.691 96.5597V36.5455H567.691V96.5597H569.691ZM568.691 37.5455H599.373V35.5455H568.691V37.5455ZM598.373 36.5455V182H600.373V36.5455H598.373ZM599.373 181H568.691V183H599.373V181ZM569.691 182V121.915H567.691V182H569.691ZM568.691 120.915H506.262V122.915H568.691V120.915ZM505.262 121.915V182H507.262V121.915H505.262ZM506.262 181H475.509V183H506.262V181ZM624.728 182H623.728V183H624.728V182ZM624.728 36.5455V35.5455H623.728V36.5455H624.728ZM722.739 36.5455H723.739V35.5455H722.739V36.5455ZM722.739 61.9006V62.9006H723.739V61.9006H722.739ZM655.481 61.9006V60.9006H654.481V61.9006H655.481ZM655.481 96.5597H654.481V97.5597H655.481V96.5597ZM717.697 96.5597H718.697V95.5597H717.697V96.5597ZM717.697 121.915V122.915H718.697V121.915H717.697ZM655.481 121.915V120.915H654.481V121.915H655.481ZM655.481 156.645H654.481V157.645H655.481V156.645ZM723.023 156.645H724.023V155.645H723.023V156.645ZM723.023 182V183H724.023V182H723.023ZM625.728 182V36.5455H623.728V182H625.728ZM624.728 37.5455H722.739V35.5455H624.728V37.5455ZM721.739 36.5455V61.9006H723.739V36.5455H721.739ZM722.739 60.9006H655.481V62.9006H722.739V60.9006ZM654.481 61.9006V96.5597H656.481V61.9006H654.481ZM655.481 97.5597H717.697V95.5597H655.481V97.5597ZM716.697 96.5597V121.915H718.697V96.5597H716.697ZM717.697 120.915H655.481V122.915H717.697V120.915ZM654.481 121.915V156.645H656.481V121.915H654.481ZM655.481 157.645H723.023V155.645H655.481V157.645ZM722.023 156.645V182H724.023V156.645H722.023ZM723.023 181H624.728V183H723.023V181ZM747.189 182H746.189V183H747.189V182ZM747.189 36.5455V35.5455H746.189V36.5455H747.189ZM832.7 42.4403L832.249 43.3326L832.255 43.3358L832.7 42.4403ZM850.527 58.9886L849.658 59.4836L849.662 59.4904L850.527 58.9886ZM850.456 108.989L851.312 109.505L851.314 109.502L850.456 108.989ZM832.345 124.898L831.922 123.992L831.92 123.993L832.345 124.898ZM765.371 130.438H764.371V131.438H765.371V130.438ZM765.371 105.722V104.722H764.371V105.722H765.371ZM813.453 103.307L813.836 104.231L813.836 104.231L813.453 103.307ZM822.118 96.0625L821.261 95.5461L821.256 95.5555L822.118 96.0625ZM822.118 71.8438L821.25 72.3399L821.255 72.3492L822.118 71.8438ZM813.382 64.3153L812.971 65.2268L812.977 65.2298L812.984 65.2328L813.382 64.3153ZM777.942 61.6875V60.6875H776.942V61.6875H777.942ZM777.942 182V183H778.942V182H777.942ZM825.74 115.807L826.618 115.328L826.333 114.807H825.74V115.807ZM861.891 182V183H863.576L862.768 181.521L861.891 182ZM827.942 182L827.06 182.471L827.342 183H827.942V182ZM792.572 115.807V114.807H790.904L791.69 116.278L792.572 115.807ZM748.189 182V36.5455H746.189V182H748.189ZM747.189 37.5455H804.575V35.5455H747.189V37.5455ZM804.575 37.5455C815.443 37.5455 824.655 39.4896 832.249 43.3326L833.152 41.5481C825.215 37.5312 815.677 35.5455 804.575 35.5455V37.5455ZM832.255 43.3358C839.901 47.1356 845.69 52.5173 849.658 59.4835L851.396 58.4937C847.22 51.1608 841.124 45.5102 833.145 41.5448L832.255 43.3358ZM849.662 59.4904C853.679 66.4159 855.706 74.5938 855.706 84.0597H857.706C857.706 74.302 855.614 65.7659 851.392 58.4869L849.662 59.4904ZM855.706 84.0597C855.706 93.5726 853.655 101.697 849.598 108.475L851.314 109.502C855.59 102.36 857.706 93.8649 857.706 84.0597H855.706ZM849.6 108.472C845.544 115.201 839.665 120.375 831.922 123.992L832.768 125.804C840.84 122.034 847.035 116.602 851.312 109.505L849.6 108.472ZM831.92 123.993C824.226 127.608 814.862 129.438 803.794 129.438V131.438C815.075 131.438 824.745 129.574 832.77 125.803L831.92 123.993ZM803.794 129.438H765.371V131.438H803.794V129.438ZM766.371 130.438V105.722H764.371V130.438H766.371ZM765.371 106.722H798.822V104.722H765.371V106.722ZM798.822 106.722C804.777 106.722 809.794 105.906 813.836 104.231L813.07 102.383C809.347 103.927 804.611 104.722 798.822 104.722V106.722ZM813.836 104.231C817.893 102.548 820.962 99.9996 822.98 96.5695L821.256 95.5555C819.486 98.5647 816.778 100.845 813.07 102.383L813.836 104.231ZM822.974 96.5788C825.032 93.1662 826.03 88.975 826.03 84.0597H824.03C824.03 88.7087 823.086 92.5194 821.262 95.5462L822.974 96.5788ZM826.03 84.0597C826.03 79.0976 825.032 74.8408 822.981 71.3383L821.255 72.3492C823.086 75.4755 824.03 79.3626 824.03 84.0597H826.03ZM822.986 71.3476C820.972 67.823 817.883 65.1774 813.78 63.3979L812.984 65.2328C816.741 66.8624 819.476 69.2357 821.25 72.3399L822.986 71.3476ZM813.793 63.4038C809.742 61.5756 804.689 60.6875 798.68 60.6875V62.6875C804.509 62.6875 809.258 63.5513 812.971 65.2268L813.793 63.4038ZM798.68 60.6875H777.942V62.6875H798.68V60.6875ZM776.942 61.6875V182H778.942V61.6875H776.942ZM777.942 181H747.189V183H777.942V181ZM824.862 116.286L861.013 182.479L862.768 181.521L826.618 115.328L824.862 116.286ZM861.891 181H827.942V183H861.891V181ZM828.824 181.529L793.454 115.336L791.69 116.278L827.06 182.471L828.824 181.529ZM792.572 116.807H825.74V114.807H792.572V116.807ZM878.439 182H877.439V183H878.439V182ZM878.439 36.5455V35.5455H877.439V36.5455H878.439ZM976.45 36.5455H977.45V35.5455H976.45V36.5455ZM976.45 61.9006V62.9006H977.45V61.9006H976.45ZM909.192 61.9006V60.9006H908.192V61.9006H909.192ZM909.192 96.5597H908.192V97.5597H909.192V96.5597ZM971.408 96.5597H972.408V95.5597H971.408V96.5597ZM971.408 121.915V122.915H972.408V121.915H971.408ZM909.192 121.915V120.915H908.192V121.915H909.192ZM909.192 156.645H908.192V157.645H909.192V156.645ZM976.734 156.645H977.734V155.645H976.734V156.645ZM976.734 182V183H977.734V182H976.734ZM879.439 182V36.5455H877.439V182H879.439ZM878.439 37.5455H976.45V35.5455H878.439V37.5455ZM975.45 36.5455V61.9006H977.45V36.5455H975.45ZM976.45 60.9006H909.192V62.9006H976.45V60.9006ZM908.192 61.9006V96.5597H910.192V61.9006H908.192ZM909.192 97.5597H971.408V95.5597H909.192V97.5597ZM970.408 96.5597V121.915H972.408V96.5597H970.408ZM971.408 120.915H909.192V122.915H971.408V120.915ZM908.192 121.915V156.645H910.192V121.915H908.192ZM909.192 157.645H976.734V155.645H909.192V157.645ZM975.734 156.645V182H977.734V156.645H975.734ZM976.734 181H878.439V183H976.734V181Z" fill="black"/>
</g>
<defs>
<clipPath id="clip0_707_18">
<rect width="1019" height="218" fill="white"/>
</clipPath>
</defs>
</svg>
